<svg width="32" height="25" viewBox="0 0 32 25" fill="none" xmlns="http://www.w3.org/2000/svg">
<path fill-rule="evenodd" clip-rule="evenodd" d="M16.0007 15.3061L16.1667 15.3062L16.538 15.3074C19.3755 15.3261 25.8599 15.6128 25.8599 20.0079C25.8599 24.3742 19.6015 24.6589 16.5822 24.6775L15.4635 24.6775C12.6259 24.6588 6.1401 24.3726 6.1401 19.9829C6.1401 15.6111 12.6259 15.326 15.4635 15.3074L15.8348 15.3062C15.8924 15.3061 15.9477 15.3061 16.0007 15.3061ZM16.0007 17.5108C12.5086 17.5108 8.34475 17.9399 8.34475 19.9829C8.34475 21.9797 12.2601 22.4465 15.6816 22.4729L16.0007 22.4742C19.4929 22.4742 23.6553 22.0465 23.6553 20.0079C23.6553 17.9444 19.4929 17.5108 16.0007 17.5108ZM27.6907 14.7097C31.2519 15.2432 32 16.9158 32 18.2254C32 19.0249 31.6855 20.4844 29.5837 21.2854C29.4544 21.3339 29.3221 21.3574 29.1913 21.3574C28.7474 21.3574 28.3285 21.087 28.161 20.6475C27.9435 20.0787 28.2301 19.4409 28.7989 19.2248C29.7954 18.8456 29.7954 18.4267 29.7954 18.2254C29.7954 17.5816 28.9767 17.1319 27.3629 16.8908C26.7618 16.7997 26.3458 16.2397 26.4355 15.6356C26.5251 15.033 27.0837 14.6318 27.6907 14.7097ZM5.56454 15.6356C5.6542 16.2397 5.23826 16.7997 4.63712 16.8908C3.02332 17.1319 2.20466 17.5816 2.20466 18.2254C2.20466 18.4267 2.20466 18.8441 3.20263 19.2248C3.77143 19.4409 4.05803 20.0787 3.84051 20.6475C3.67296 21.087 3.25407 21.3574 2.8102 21.3574C2.6794 21.3574 2.54712 21.3339 2.41778 21.2854C0.314545 20.4829 1.52588e-05 19.0235 1.52588e-05 18.2254C1.52588e-05 16.9173 0.748125 15.2432 4.31083 14.7097C4.91785 14.6333 5.47342 15.033 5.56454 15.6356ZM16.0007 0C19.7046 0 22.7161 3.01302 22.7161 6.71535C22.7161 10.4177 19.7046 13.4307 16.0007 13.4307H15.9611C14.168 13.4248 12.488 12.7223 11.2299 11.4524C9.96884 10.184 9.27952 8.49965 9.28681 6.71094C9.28681 3.01302 12.2984 0 16.0007 0ZM16.0007 2.20465C13.5139 2.20465 11.4915 4.22851 11.4915 6.71535C11.4871 7.92056 11.9486 9.04787 12.7937 9.89886C13.6388 10.7499 14.7647 11.2217 15.964 11.2261L16.0007 12.3284V11.2261C18.4876 11.2261 20.5115 9.20366 20.5115 6.71535C20.5115 4.22851 18.4876 2.20465 16.0007 2.20465ZM25.0971 1.43963C27.681 1.8644 29.5579 4.07492 29.5579 6.69551C29.552 9.33374 27.581 11.5972 24.9722 11.9631C24.9207 11.9705 24.8693 11.9734 24.8193 11.9734C24.2785 11.9734 23.8067 11.5751 23.7288 11.024C23.645 10.4199 24.0639 9.86285 24.668 9.77908C26.1965 9.56449 27.3503 8.23876 27.3532 6.69257C27.3532 5.15961 26.2538 3.86328 24.7385 3.61489C24.1388 3.51641 23.7317 2.94908 23.8302 2.34795C23.9301 1.74681 24.493 1.3441 25.0971 1.43963ZM8.17132 2.34795C8.26979 2.94908 7.86267 3.51641 7.263 3.61489C5.74767 3.86328 4.64829 5.15961 4.64829 6.69551C4.65123 8.23876 5.805 9.56596 7.33208 9.77908C7.93615 9.86285 8.35504 10.4199 8.27126 11.024C8.19336 11.5751 7.72157 11.9734 7.1807 11.9734C7.13072 11.9734 7.07928 11.9705 7.02784 11.9631C4.41901 11.5972 2.44952 9.33374 2.44365 6.69845C2.44365 4.07492 4.32053 1.8644 6.90438 1.43963C7.52315 1.34263 8.07137 1.74975 8.17132 2.34795Z" fill="#737791"/>
</svg>
