<svg width="51" height="53" viewBox="0 0 51 53" fill="none" xmlns="http://www.w3.org/2000/svg">
<rect width="51" height="52.4" rx="8" fill="#1F578A" fill-opacity="0.11"/>
<path d="M35.7779 33.3543C35.0949 32.7287 34.4968 32.0115 34 31.222C33.4576 30.1321 33.1325 28.942 33.0437 27.7213V24.1261C33.0484 22.2089 32.3715 20.3558 31.1403 18.9152C29.909 17.4746 28.2081 16.5455 26.3571 16.3025V15.3637C26.3571 15.106 26.2574 14.8589 26.0801 14.6767C25.9028 14.4945 25.6622 14.3921 25.4114 14.3921C25.1606 14.3921 24.9201 14.4945 24.7428 14.6767C24.5654 14.8589 24.4658 15.106 24.4658 15.3637V16.3171C22.6314 16.5776 20.951 17.5123 19.7359 18.9481C18.5208 20.3839 17.8533 22.2234 17.8571 24.1261V27.7213C17.7684 28.942 17.4432 30.1321 16.9008 31.222C16.4127 32.0097 15.8243 32.7268 15.1512 33.3543C15.0757 33.4225 15.0151 33.5065 14.9736 33.6006C14.9321 33.6947 14.9105 33.7968 14.9104 33.9002V34.89C14.9104 35.083 14.985 35.2681 15.1179 35.4046C15.2507 35.5411 15.4309 35.6177 15.6187 35.6177H35.3104C35.4983 35.6177 35.6784 35.5411 35.8113 35.4046C35.9441 35.2681 36.0187 35.083 36.0187 34.89V33.9002C36.0186 33.7968 35.9971 33.6947 35.9555 33.6006C35.914 33.5065 35.8535 33.4225 35.7779 33.3543ZM16.3837 34.1622C17.0428 33.508 17.623 32.775 18.1121 31.9788C18.7953 30.6626 19.194 29.2104 19.2808 27.7213V24.1261C19.2527 23.2732 19.392 22.4232 19.6903 21.6267C19.9886 20.8302 20.4398 20.1035 21.0171 19.49C21.5944 18.8764 22.286 18.3884 23.0507 18.0552C23.8154 17.7219 24.6375 17.5502 25.4681 17.5502C26.2987 17.5502 27.1208 17.7219 27.8855 18.0552C28.6502 18.3884 29.3418 18.8764 29.9191 19.49C30.4964 20.1035 30.9477 20.8302 31.246 21.6267C31.5442 22.4232 31.6835 23.2732 31.6554 24.1261V27.7213C31.7422 29.2104 32.1409 30.6626 32.8242 31.9788C33.3132 32.775 33.8934 33.508 34.5525 34.1622H16.3837Z" fill="#1F578A"/>
<path d="M25.4997 38.048C25.9459 38.0374 26.3741 37.8651 26.7085 37.5614C27.0429 37.2578 27.2621 36.8423 27.3272 36.3887H23.6013C23.6682 36.8547 23.8976 37.2798 24.2468 37.5851C24.596 37.8903 25.0412 38.0548 25.4997 38.048Z" fill="#1F578A"/>
<path d="M39 13C40.6569 13 42 11.6569 42 10C42 8.34315 40.6569 7 39 7C37.3431 7 36 8.34315 36 10C36 11.6569 37.3431 13 39 13Z" fill="#EB5757"/>
</svg>
