<svg width="32" height="32" viewBox="0 0 32 32" fill="none" xmlns="http://www.w3.org/2000/svg">
<path d="M16 10.6667C17.4145 10.6667 18.771 11.2287 19.7712 12.2288C20.7714 13.229 21.3333 14.5856 21.3333 16.0001C21.3333 17.4146 20.7714 18.7711 19.7712 19.7713C18.771 20.7715 17.4145 21.3334 16 21.3334C14.5855 21.3334 13.229 20.7715 12.2288 19.7713C11.2286 18.7711 10.6667 17.4146 10.6667 16.0001C10.6667 14.5856 11.2286 13.229 12.2288 12.2288C13.229 11.2287 14.5855 10.6667 16 10.6667ZM16 13.3334C15.2928 13.3334 14.6145 13.6144 14.1144 14.1145C13.6143 14.6146 13.3333 15.2928 13.3333 16.0001C13.3333 16.7073 13.6143 17.3856 14.1144 17.8857C14.6145 18.3858 15.2928 18.6667 16 18.6667C16.7072 18.6667 17.3855 18.3858 17.8856 17.8857C18.3857 17.3856 18.6667 16.7073 18.6667 16.0001C18.6667 15.2928 18.3857 14.6146 17.8856 14.1145C17.3855 13.6144 16.7072 13.3334 16 13.3334ZM13.3333 29.3334C13 29.3334 12.72 29.0934 12.6667 28.7734L12.1733 25.2401C11.3333 24.9067 10.6133 24.4534 9.92 23.9201L6.6 25.2668C6.30667 25.3734 5.94667 25.2667 5.78667 24.9734L3.12 20.3601C3.0384 20.2227 3.00963 20.0603 3.03908 19.9032C3.06852 19.7462 3.15417 19.6052 3.28 19.5067L6.09334 17.2934L6 16.0001L6.09334 14.6667L3.28 12.4934C3.15417 12.3949 3.06852 12.254 3.03908 12.0969C3.00963 11.9399 3.0384 11.7775 3.12 11.6401L5.78667 7.02675C5.94667 6.73341 6.30667 6.61342 6.6 6.73342L9.92 8.06675C10.6133 7.54675 11.3333 7.09342 12.1733 6.76008L12.6667 3.22675C12.72 2.90675 13 2.66675 13.3333 2.66675H18.6667C19 2.66675 19.28 2.90675 19.3333 3.22675L19.8267 6.76008C20.6667 7.09342 21.3867 7.54675 22.08 8.06675L25.4 6.73342C25.6933 6.61342 26.0533 6.73341 26.2133 7.02675L28.88 11.6401C29.0533 11.9334 28.9733 12.2934 28.72 12.4934L25.9067 14.6667L26 16.0001L25.9067 17.3334L28.72 19.5067C28.9733 19.7067 29.0533 20.0667 28.88 20.3601L26.2133 24.9734C26.0533 25.2667 25.6933 25.3867 25.4 25.2668L22.08 23.9334C21.3867 24.4534 20.6667 24.9067 19.8267 25.2401L19.3333 28.7734C19.28 29.0934 19 29.3334 18.6667 29.3334H13.3333ZM15 5.33341L14.5067 8.81342C12.9067 9.14675 11.4933 10.0001 10.4667 11.1867L7.25334 9.80008L6.25334 11.5334L9.06667 13.6001C8.53334 15.1556 8.53334 16.8445 9.06667 18.4001L6.24 20.4801L7.24 22.2134L10.48 20.8267C11.5067 22.0001 12.9067 22.8534 14.4933 23.1734L14.9867 26.6667H17.0133L17.5067 23.1867C19.0933 22.8534 20.4933 22.0001 21.52 20.8267L24.76 22.2134L25.76 20.4801L22.9333 18.4134C23.4667 16.8534 23.4667 15.1601 22.9333 13.6001L25.7467 11.5334L24.7467 9.80008L21.5333 11.1867C20.4856 9.97385 19.0644 9.14365 17.4933 8.82675L17 5.33341H15Z" fill="#737791"/>
</svg>
