<svg width="32" height="32" viewBox="0 0 32 32" fill="none" xmlns="http://www.w3.org/2000/svg">
<path d="M25.6 8.80005H6.4C5.07452 8.80005 4 9.87457 4 11.2V23.2C4 24.5255 5.07452 25.6 6.4 25.6H25.6C26.9255 25.6 28 24.5255 28 23.2V11.2C28 9.87457 26.9255 8.80005 25.6 8.80005Z" stroke="#737791" stroke-width="2" stroke-linecap="round" stroke-linejoin="round"/>
<path d="M20.8 25.6V6.4C20.8 5.76348 20.5471 5.15303 20.097 4.70294C19.6469 4.25286 19.0365 4 18.4 4H13.6C12.9634 4 12.353 4.25286 11.9029 4.70294C11.4528 5.15303 11.2 5.76348 11.2 6.4V25.6" stroke="#737791" stroke-width="2" stroke-linecap="round" stroke-linejoin="round"/>
</svg>
