<svg width="29" height="23" viewBox="0 0 29 23" fill="none" xmlns="http://www.w3.org/2000/svg">
<path d="M19.9818 21.216V18.9698C19.9818 17.7783 19.4818 16.6356 18.5919 15.7931C17.702 14.9506 16.4949 14.4773 15.2364 14.4773H5.74545C4.48688 14.4773 3.27986 14.9506 2.38991 15.7931C1.49997 16.6356 1 17.7783 1 18.9698V21.216" stroke="#737791" stroke-width="2" stroke-linecap="round" stroke-linejoin="round"/>
<path d="M10.4909 9.98495C13.1118 9.98495 15.2364 7.9736 15.2364 5.49248C15.2364 3.01135 13.1118 1 10.4909 1C7.8701 1 5.74548 3.01135 5.74548 5.49248C5.74548 7.9736 7.8701 9.98495 10.4909 9.98495Z" stroke="#737791" stroke-width="2" stroke-linecap="round" stroke-linejoin="round"/>
<path d="M27.1001 21.2162V18.97C27.0993 17.9746 26.7493 17.0077 26.1051 16.221C25.461 15.4343 24.559 14.8724 23.541 14.6235" stroke="#737791" stroke-width="2" stroke-linecap="round" stroke-linejoin="round"/>
<path d="M18.7955 1.146C19.8163 1.39342 20.721 1.95543 21.3671 2.74342C22.0132 3.53141 22.3639 4.50056 22.3639 5.49808C22.3639 6.4956 22.0132 7.46475 21.3671 8.25275C20.721 9.04074 19.8163 9.60275 18.7955 9.85017" stroke="#737791" stroke-width="2" stroke-linecap="round" stroke-linejoin="round"/>
</svg>
