<svg width="26" height="29" viewBox="0 0 26 29" fill="none" xmlns="http://www.w3.org/2000/svg">
<path fill-rule="evenodd" clip-rule="evenodd" d="M18.477 0C22.977 0 26 3.08164 26 7.6676V20.8301C26 25.4561 23.0701 28.4647 18.5356 28.4934L7.52447 28.4977C3.02439 28.4977 0 25.416 0 20.8301V7.6676C0 3.04013 2.92992 0.0329204 7.46435 0.0057253L18.4755 0H18.477ZM18.477 2.14699L7.47151 2.15271C4.13939 2.17275 2.14699 4.23386 2.14699 7.6676V20.8301C2.14699 24.2867 4.158 26.3507 7.52304 26.3507L18.5285 26.3464C21.8606 26.3263 23.853 24.2624 23.853 20.8301V7.6676C23.853 4.21095 21.8434 2.14699 18.477 2.14699ZM18.2009 19.2852C18.7934 19.2852 19.2744 19.7662 19.2744 20.3587C19.2744 20.9513 18.7934 21.4322 18.2009 21.4322H7.8667C7.27413 21.4322 6.79321 20.9513 6.79321 20.3587C6.79321 19.7662 7.27413 19.2852 7.8667 19.2852H18.2009ZM18.2009 13.293C18.7934 13.293 19.2744 13.7739 19.2744 14.3665C19.2744 14.9591 18.7934 15.44 18.2009 15.44H7.8667C7.27413 15.44 6.79321 14.9591 6.79321 14.3665C6.79321 13.7739 7.27413 13.293 7.8667 13.293H18.2009ZM11.8096 7.31464C12.4021 7.31464 12.8831 7.79556 12.8831 8.38813C12.8831 8.9807 12.4021 9.46162 11.8096 9.46162H7.86627C7.2737 9.46162 6.79278 8.9807 6.79278 8.38813C6.79278 7.79556 7.2737 7.31464 7.86627 7.31464H11.8096Z" fill="#737791"/>
</svg>
